<svg xmlns="http://www.w3.org/2000/svg" xmlns:xlink="http://www.w3.org/1999/xlink" width="26.628" height="29.688" viewBox="0 0 26.628 29.688">
  <defs>
    <clipPath id="clip-path">
      <rect id="Rectangle_1055" data-name="Rectangle 1055" width="26.628" height="29.688" fill="#fff"/>
    </clipPath>
  </defs>
  <g id="Group_4651" data-name="Group 4651" clip-path="url(#clip-path)">
    <path id="Path_9074" data-name="Path 9074" d="M16.009,18.579V33.447c4.148-.012,18.569-.025,20.792-.037V18.575H34.934Zm16.732,4.9c-.435.414-.877.821-1.316,1.23q-.966.9-1.932,1.8a.5.5,0,0,1-.8-.036q-.649-.718-1.3-1.437a.8.8,0,0,1-.06-.091c-.44.526-.855,1.02-1.267,1.516a.493.493,0,0,1-.852-.016q-.929-1.207-1.861-2.412c-.03-.039-.063-.075-.1-.123-.268.35-.529.691-.791,1.031q-.856,1.112-1.712,2.222-.673.879-1.339,1.763a.484.484,0,1,1-.768-.581l4.188-5.469a.487.487,0,0,1,.848,0l1.87,2.424c.033.043.069.085.116.143.113-.134.222-.261.33-.389.306-.364.608-.73.916-1.093a.486.486,0,0,1,.807-.007q.687.765,1.376,1.527c.013.014.028.026.049.045l1.286-1.2,1.67-1.555a.456.456,0,0,1,.47-.117.476.476,0,0,1,.178.825" transform="translate(-12.969 -15.047)" fill="#fff"/>
    <path id="Path_9075" data-name="Path 9075" d="M10.884,18.728V30.457q0,1.7,0,3.393a.491.491,0,0,0,.549.544c1.126,0,5.187-.006,9.483-.009-.021.043-.038.078-.055.109l-1.179,2.124L16.471,42.4q-.43.773-.86,1.546a.507.507,0,0,0-.045.473.453.453,0,0,0,.4.29.461.461,0,0,0,.459-.253q.541-.969,1.08-1.939l3.559-6.412c.053-.095.108-.188.163-.282l.022.01v.074q0,2.981,0,5.963a1.066,1.066,0,0,0,.015.194.475.475,0,0,0,.915.073.868.868,0,0,0,.032-.266q0-2.944,0-5.887v-.192c.031.042.043.055.051.069L25.29,41.3c.578,1.04,1.152,2.082,1.737,3.119a.677.677,0,0,0,.276.256.441.441,0,0,0,.527-.134.488.488,0,0,0,.028-.6L25.273,39.29l-2.6-4.68c-.039-.071-.075-.145-.117-.226l5.065,0,5.206.015a.491.491,0,0,0,.549-.544q0-1.7,0-3.393V18.552H10.884Zm.973-.168,18.925,0h1.868V33.392c-2.223.012-16.644.025-20.792.037Z" transform="translate(-8.817 -15.029)" fill="#fff"/>
    <path id="Path_9076" data-name="Path 9076" d="M26.615.451A.624.624,0,0,0,26.47.137C26.358-.016,26.182,0,26.016,0L17.08,0H9.548L.612,0C.447,0,.27-.016.158.137A.624.624,0,0,0,.013.451C0,1.131,0,1.812,0,2.493a.461.461,0,0,0,.491.46c.515,0,1.031,0,1.571,0H24.561c.54,0,1.056,0,1.571,0a.461.461,0,0,0,.491-.46c.008-.681.007-1.362-.008-2.042" transform="translate(0 0)" fill="#fff"/>
  </g>
</svg>
