<svg xmlns="http://www.w3.org/2000/svg" width="22.109" height="27.704" viewBox="0 0 22.109 27.704">
  <g id="Group_1679" data-name="Group 1679" transform="translate(0 0)">
    <g id="Group_1678" data-name="Group 1678" transform="translate(0)">
      <path id="Path_2101" data-name="Path 2101" d="M2309.915-2120.152h-14.792a2.184,2.184,0,0,1-2.18-2.18v-.324a2.185,2.185,0,0,1,2.18-2.184h14.792v1.465h-14.792a.718.718,0,0,0-.715.719v.324a.715.715,0,0,0,.715.716h14.792Z" transform="translate(-2292.943 2136.072)" fill="#a1a1a1"/>
      <path id="Path_2102" data-name="Path 2102" d="M2299.744-2120.152v-1.465a.715.715,0,0,0,.716-.716v-.324a.718.718,0,0,0-.716-.719v-1.465a2.185,2.185,0,0,1,2.18,2.184v.324A2.184,2.184,0,0,1,2299.744-2120.152Z" transform="translate(-2279.816 2136.072)" fill="#a1a1a1"/>
      <path id="Path_2103" data-name="Path 2103" d="M2308.947-2115.977h-15.5v-12.7h19.165v11.964h-1.465v-10.5h-16.234v9.766h14.036Z" transform="translate(-2291.973 2128.673)" fill="#a1a1a1"/>
      <g id="Group_1677" data-name="Group 1677" transform="translate(9.662 15.186)">
        <rect id="Rectangle_305" data-name="Rectangle 305" width="1.465" height="3.666" fill="#a1a1a1"/>
        <rect id="Rectangle_306" data-name="Rectangle 306" width="1.465" height="3.671" transform="translate(1.316)" fill="#a1a1a1"/>
      </g>
      <path id="Path_2104" data-name="Path 2104" d="M2302.556-2128.439H2293.7v3.543h1.506a1.447,1.447,0,0,1,1.447,1.447v1.891a1.448,1.448,0,0,0,1.448,1.448h.059a1.447,1.447,0,0,0,1.447-1.448v-2.532a1.447,1.447,0,0,1,1.448-1.448h.059a1.446,1.446,0,0,1,1.447,1.448v1.336a1.4,1.4,0,0,0,1.447,1.339h.059a1.449,1.449,0,0,0,1.448-1.448v-2.385a1.449,1.449,0,0,1,1.447-1.451h.059a1.45,1.45,0,0,1,1.448,1.451v12.271a1.447,1.447,0,0,0,1.447,1.448h.038a1.449,1.449,0,0,0,1.448-1.448v-15.463h-8.841Z" transform="translate(-2291.492 2129.126)" fill="#a1a1a1"/>
      <path id="Path_2105" data-name="Path 2105" d="M2300.7-2116.115a2.19,2.19,0,0,1-2.214-2.18v-1.8a2.183,2.183,0,0,1,2.182-2.181,2.189,2.189,0,0,1,2.213,2.181v1.8A2.182,2.182,0,0,1,2300.7-2116.115Zm0-4.7a.724.724,0,0,0-.75.715v1.8a.716.716,0,0,0,.718.715.722.722,0,0,0,.748-.715v-1.8A.715.715,0,0,0,2300.7-2120.812Z" transform="translate(-2282.246 2141.021)" fill="#a1a1a1"/>
      <path id="Path_2106" data-name="Path 2106" d="M2298.182-2112.905a2.192,2.192,0,0,1-2.217-2.184v-5.222a2.183,2.183,0,0,1,2.179-2.18,2.191,2.191,0,0,1,2.218,2.18v5.222A2.184,2.184,0,0,1,2298.182-2112.905Zm0-8.12a.723.723,0,0,0-.752.715v5.222a.717.717,0,0,0,.714.719.726.726,0,0,0,.753-.719v-5.222A.714.714,0,0,0,2298.182-2121.025Z" transform="translate(-2287.11 2140.61)" fill="#a1a1a1"/>
    </g>
  </g>
</svg>
