<svg xmlns="http://www.w3.org/2000/svg" width="23.074" height="24.681" viewBox="0 0 23.074 24.681">
  <g id="Group_4685" data-name="Group 4685" transform="translate(0 0)">
    <path id="Path_782" data-name="Path 782" d="M-632.014-604.609c0-.513,0-1,0-1.49,0-.624.339-1.012.877-1.024.554-.012.914.384.922,1.027.006.488,0,.977,0,1.489h9.755c0-.5,0-.982,0-1.469.007-.651.351-1.047.9-1.047s.894.4.9,1.047c0,.475,0,.951,0,1.493h1.352c.579,0,1.157,0,1.736,0a1.665,1.665,0,0,1,1.766,1.77c.008,1.056,0,2.112,0,3.168q0,7.639,0,15.278a1.7,1.7,0,0,1-1.913,1.923h-19.227a1.7,1.7,0,0,1-1.931-1.948q0-9.115,0-18.229a1.716,1.716,0,0,1,1.967-1.963l2.691,0C-632.17-604.585-632.127-604.595-632.014-604.609Zm-3.473,6.651v.5q0,6.359,0,12.719c0,.753.16.913.913.913h18.491c.73,0,.9-.163.9-.884q0-6.381,0-12.762v-.484Zm5.273-5.157c0,.327.01.609,0,.889a.9.9,0,0,1-.933.931.9.9,0,0,1-.863-.95c-.007-.278,0-.556,0-.9a1.352,1.352,0,0,0-.093,1.99,1.4,1.4,0,0,0,2.014-.036A1.33,1.33,0,0,0-630.214-603.115Zm9.756,0a1.3,1.3,0,0,0-.375,1.528,1.375,1.375,0,0,0,1.383.845,1.382,1.382,0,0,0,1.24-1.043,1.123,1.123,0,0,0-.449-1.29c0,.276,0,.534,0,.791a.9.9,0,0,1-.909.991.912.912,0,0,1-.887-.975C-620.465-602.536-620.458-602.8-620.458-603.118Z" transform="translate(636.873 607.122)" fill="#21ccc8"/>
    <path id="Path_783" data-name="Path 783" d="M-541.592-480.05c-.3,0-.607,0-.91,0a.421.421,0,0,1-.46-.46c-.007-.578-.005-1.156,0-1.733a.423.423,0,0,1,.461-.462c.578-.01,1.156-.006,1.733,0a.427.427,0,0,1,.464.461c.01.578.014,1.156,0,1.733a.441.441,0,0,1-.508.464C-541.072-480.054-541.333-480.05-541.592-480.05Z" transform="translate(551.12 493.515)" fill="#21ccc8"/>
    <path id="Path_786" data-name="Path 786" d="M-587.517-481.339c0,1.393.115,1.3-1.275,1.291-.3,0-.606,0-.909,0a.413.413,0,0,1-.459-.455c0-.577,0-1.154,0-1.732,0-.327.184-.469.492-.471.534,0,1.068,0,1.6,0,.377,0,.563.166.552.55C-587.523-481.888-587.517-481.613-587.517-481.339Z" transform="translate(594.218 493.514)" fill="#21ccc8"/>
    <path id="Path_787" data-name="Path 787" d="M-494.466-385.562c-.26,0-.52,0-.779,0-.368.009-.525-.184-.526-.533,0-.52,0-1.039,0-1.559,0-.366.155-.565.547-.557.534.011,1.068.007,1.6,0,.365,0,.524.177.521.533,0,.52-.009,1.039,0,1.559.007.379-.157.566-.542.557-.274-.006-.548,0-.822,0Z" transform="translate(508.023 407.217)" fill="#21ccc8"/>
    <path id="Path_788" data-name="Path 788" d="M-541.644-432.739c-.26,0-.52,0-.779,0-.354.007-.541-.152-.54-.516,0-.548,0-1.1,0-1.645a.428.428,0,0,1,.475-.487c.563,0,1.126,0,1.689,0a.436.436,0,0,1,.5.471q.015.844,0,1.689a.449.449,0,0,1-.522.492C-541.1-432.744-541.37-432.739-541.644-432.739Z" transform="translate(551.117 450.3)" fill="#21ccc8"/>
    <path id="Path_789" data-name="Path 789" d="M-541.617-388.195c.26,0,.52.007.779,0,.367-.012.53.175.531.526,0,.534,0,1.068,0,1.6a.463.463,0,0,1-.539.52c-.534-.008-1.068,0-1.6,0a.457.457,0,0,1-.526-.528c.007-.534,0-1.068,0-1.6,0-.363.174-.527.533-.518C-542.166-388.189-541.892-388.195-541.617-388.195Z" transform="translate(551.127 407.205)" fill="#21ccc8"/>
    <path id="Path_790" data-name="Path 790" d="M-494.46-432.73c-.274,0-.548,0-.822,0a.439.439,0,0,1-.508-.462c-.014-.577-.011-1.154,0-1.731a.422.422,0,0,1,.466-.455c.577,0,1.154,0,1.731,0,.323,0,.464.186.463.5q0,.822,0,1.645a.446.446,0,0,1-.508.5Z" transform="translate(508.048 450.291)" fill="#21ccc8"/>
    <path id="Path_791" data-name="Path 791" d="M-590.2-434.09c0-1.455-.139-1.329,1.319-1.329s1.328-.132,1.327,1.321.129,1.328-1.32,1.329c-.274,0-.548,0-.822,0a.435.435,0,0,1-.5-.5C-590.2-433.542-590.2-433.816-590.2-434.09Z" transform="translate(594.255 450.33)" fill="#21ccc8"/>
    <path id="Path_793" data-name="Path 793" d="M-587.529-386.814c0,.274,0,.548,0,.822a.425.425,0,0,1-.485.473c-.562,0-1.125,0-1.687,0a.422.422,0,0,1-.473-.484c0-.562,0-1.125,0-1.687a.422.422,0,0,1,.483-.473q.843,0,1.687,0a.422.422,0,0,1,.474.483C-587.528-387.391-587.529-387.1-587.529-386.814Z" transform="translate(594.228 407.174)" fill="#21ccc8"/>
  </g>
</svg>
