<svg xmlns="http://www.w3.org/2000/svg" width="53.64" height="43.454" viewBox="0 0 53.64 43.454">
  <g id="Group_1681" data-name="Group 1681" transform="translate(0 0)" opacity="0.46">
    <path id="Path_2108" data-name="Path 2108" d="M2193.688-2058.7v26.457a4.374,4.374,0,0,0,4.375,4.372h44.893a4.373,4.373,0,0,0,4.372-4.372V-2058.7a4.378,4.378,0,0,0-4.372-4.376h-44.893A4.379,4.379,0,0,0,2193.688-2058.7Zm26.766,22.765a9.456,9.456,0,0,1-9.478-9.476,9.448,9.448,0,0,1,9.478-9.467,9.444,9.444,0,0,1,9.461,9.467A9.452,9.452,0,0,1,2220.454-2035.931Z" transform="translate(-2193.688 2071.322)" fill="#fff"/>
    <path id="Path_2109" data-name="Path 2109" d="M2225.223-2064.781h-23.476l-6.126,8.27h35.467Z" transform="translate(-2186.295 2064.781)" fill="#fff"/>
  </g>
</svg>
