<svg xmlns="http://www.w3.org/2000/svg" width="14.35" height="16.66" viewBox="0 0 14.35 16.66">
  <g id="Group_1687" data-name="Group 1687" transform="translate(0)">
    <path id="Path_2122" data-name="Path 2122" d="M2256.068-2067.169h-12.221l1.233,11.1a.766.766,0,0,0,.76.681h8.232a.767.767,0,0,0,.763-.681Z" transform="translate(-2242.781 2072.043)" fill="#fff"/>
    <path id="Path_2123" data-name="Path 2123" d="M2256.634-2068.678h-12.12a1.118,1.118,0,0,0-1.115,1.117h0a1.118,1.118,0,0,0,1.115,1.115h12.12a1.115,1.115,0,0,0,1.115-1.115h0A1.115,1.115,0,0,0,2256.634-2068.678Z" transform="translate(-2243.398 2069.957)" fill="#fff"/>
    <path id="Path_2124" data-name="Path 2124" d="M2248.052-2068.179a1.038,1.038,0,0,1-1.039,1.041,1.041,1.041,0,0,1-1.038-1.041,1.037,1.037,0,0,1,1.038-1.036A1.034,1.034,0,0,1,2248.052-2068.179Z" transform="translate(-2239.838 2069.215)" fill="#fff"/>
  </g>
</svg>
