<svg xmlns="http://www.w3.org/2000/svg" width="26.03" height="26.149" viewBox="0 0 26.03 26.149">
  <g id="Group_4551" data-name="Group 4551" transform="translate(-161.945 1374.411)">
    <path id="Path_2959" data-name="Path 2959" d="M175.122-1373.022l3.773,3.768-9.1,9.052-3.728-3.8Z" transform="translate(5.754 1.937)" fill="#21ccc8"/>
    <path id="Path_2960" data-name="Path 2960" d="M174.359-1368.676l-3.948-3.962c.436-.424.874-.888,1.353-1.3a1.8,1.8,0,0,1,2.444.014c.52.472,1.015.972,1.489,1.489a1.791,1.791,0,0,1-.01,2.439C175.283-1369.538,174.819-1369.129,174.359-1368.676Z" transform="translate(11.803)" fill="#21ccc8"/>
    <path id="Path_2961" data-name="Path 2961" d="M166.4-1368.664l4.072,4.053-5.837,1.781Z" transform="translate(3.754 8.013)" fill="#21ccc8"/>
    <path id="Path_2962" data-name="Path 2962" d="M186.169-1364.345a.929.929,0,0,0-.927-.926.929.929,0,0,0-.927.926v2.739h0v10.341H163.767v-20.575h10.455v.007h2.653a.9.9,0,0,0,.9-.9.9.9,0,0,0-.9-.9h-2.653v0q-5.057,0-10.113,0a1.88,1.88,0,0,0-2.164,2.136v19.965c0,1.477.663,2.16,2.136,2.162q9.98.007,19.965,0a1.881,1.881,0,0,0,2.124-2.124q0-5.059,0-10.122h0Z" transform="translate(0 1.094)" fill="#21ccc8"/>
  </g>
</svg>
