<svg xmlns="http://www.w3.org/2000/svg" width="23.969" height="23.984" viewBox="0 0 23.969 23.984">
  <g id="Group_1675" data-name="Group 1675" transform="translate(0 0)">
    <path id="Path_2096" data-name="Path 2096" d="M2211.311-2126.607l4.616,4.612-11.129,11.08-4.562-4.657Z" transform="translate(-2196.03 2130.677)" fill="#a1a1a1"/>
    <path id="Path_2097" data-name="Path 2097" d="M2209.408-2120.978l-4.835-4.849c.537-.52,1.073-1.084,1.658-1.595a2.2,2.2,0,0,1,2.989.021c.636.574,1.245,1.187,1.823,1.819a2.2,2.2,0,0,1-.009,2.989C2210.536-2122.03,2209.968-2121.532,2209.408-2120.978Z" transform="translate(-2187.657 2127.996)" fill="#a1a1a1"/>
    <path id="Path_2098" data-name="Path 2098" d="M2200.959-2122.249l4.988,4.961-7.147,2.183Z" transform="translate(-2198.8 2139.09)" fill="#a1a1a1"/>
  </g>
</svg>
