<svg xmlns="http://www.w3.org/2000/svg" width="23.556" height="21.752" viewBox="0 0 23.556 21.752">
  <g id="Group_5396" data-name="Group 5396" transform="translate(-1664.964 -74.949)">
    <path id="Path_9047" data-name="Path 9047" d="M1687.79,95.089l-1.656,1.611c-1.126-1.142-2.291-2.3-3.432-3.491a.818.818,0,0,0-1.063-.245c-5.963,2.268-13.069.476-16.351-6.188a2.445,2.445,0,0,1,0-2.432,13.966,13.966,0,0,1,3.805-4.674l-3.138-3.029,1.692-1.691ZM1670.836,81.31a9.855,9.855,0,0,0-3.373,3.992.94.94,0,0,0,.077.7,9.748,9.748,0,0,0,2.819,3.464,10.516,10.516,0,0,0,8.1,1.928c.628-.079,1.242-.266,2.026-.439-.762-.742-1.371-1.357-2.011-1.938a.66.66,0,0,0-.539-.09,3.6,3.6,0,0,1-4.581-4.574.659.659,0,0,0-.083-.54C1672.491,82.977,1671.682,82.171,1670.836,81.31Z" fill="#b9b9b9"/>
    <path id="Path_9048" data-name="Path 9048" d="M1746.216,105.469l-1.685-1.716c.442-.7.883-1.418,1.346-2.123a.915.915,0,0,0,.008-1.053,9.816,9.816,0,0,0-9.469-5.412,1.119,1.119,0,0,1-.94-.368c-.522-.551-1.085-1.061-1.765-1.718.779-.113,1.384-.233,2-.284a12.446,12.446,0,0,1,12.573,7.352,1.87,1.87,0,0,1-.012,1.906C1747.592,103.168,1746.926,104.287,1746.216,105.469Z" transform="translate(-60.015 -15.539)" fill="#b9b9b9"/>
  </g>
</svg>
