<svg xmlns="http://www.w3.org/2000/svg" width="26.727" height="24.739" viewBox="0 0 26.727 24.739">
  <g id="Group_4557" data-name="Group 4557" transform="translate(-1070.998 -248)">
    <path id="Path_9046" data-name="Path 9046" d="M1084.361,272.739,1073,260.514a7.407,7.407,0,0,1-1.409-7.991,7.266,7.266,0,0,1,6.552-4.52c.085,0,.171,0,.256,0a8.722,8.722,0,0,1,5.958,2.36,8.722,8.722,0,0,1,5.958-2.36c.086,0,.172,0,.257,0a7.266,7.266,0,0,1,6.552,4.52,7.407,7.407,0,0,1-1.409,7.991Zm-5.958-23.427q-.109,0-.218,0a5.968,5.968,0,0,0-5.38,3.716,6.109,6.109,0,0,0,1.16,6.591l10.4,11.19,10.4-11.19a6.109,6.109,0,0,0,1.16-6.591,5.968,5.968,0,0,0-5.38-3.715q-.109,0-.218,0a7.407,7.407,0,0,0-5.473,2.424l-.485.535-.486-.535A7.407,7.407,0,0,0,1078.4,249.312Z" fill="#fff"/>
  </g>
</svg>
