<svg id="Group_4589" data-name="Group 4589" xmlns="http://www.w3.org/2000/svg" width="30.119" height="22.789" viewBox="0 0 30.119 22.789">
  <g id="Group_4585" data-name="Group 4585" transform="translate(0)">
    <path id="Path_9051" data-name="Path 9051" d="M919.156,520.089H930a3.9,3.9,0,0,1,4.208,4.181q0,7.256,0,14.513a3.893,3.893,0,0,1-4.093,4.093q-10.946,0-21.892,0a3.9,3.9,0,0,1-4.132-4.106q0-7.256,0-14.512a3.891,3.891,0,0,1,4.169-4.168Q913.708,520.085,919.156,520.089Zm.012,1.6c-3.7,0-7.4,0-11.1,0a2.153,2.153,0,0,0-1.827.927,3,3,0,0,0-.557,1.865q.011,5.73,0,11.459c0,.951-.018,1.9.007,2.852a2.424,2.424,0,0,0,2.311,2.492q11.151.008,22.3,0a2.069,2.069,0,0,0,1.641-.785,2.867,2.867,0,0,0,.664-1.929q-.007-3.922,0-7.843c0-2.156.012-4.312-.005-6.468a2.439,2.439,0,0,0-2.592-2.57Z" transform="translate(-904.091 -520.088)" fill="#a1a1a1"/>
  </g>
  <g id="Group_4586" data-name="Group 4586" transform="translate(15.621 5.685)">
    <path id="Path_9052" data-name="Path 9052" d="M1067.732,582.809H1057.48v-6.9h10.252Zm-9.437-.815h8.623v-5.267h-8.623Z" transform="translate(-1057.48 -575.913)" fill="#a1a1a1"/>
  </g>
  <g id="Group_4587" data-name="Group 4587" transform="translate(4.138 11.767)">
    <rect id="Rectangle_998" data-name="Rectangle 998" width="8.01" height="0.815" transform="translate(0 0)" fill="#a1a1a1"/>
  </g>
  <g id="Group_4588" data-name="Group 4588" transform="translate(4.138 14.437)">
    <rect id="Rectangle_999" data-name="Rectangle 999" width="6.526" height="0.815" transform="translate(0 0)" fill="#a1a1a1"/>
  </g>
</svg>
