<svg xmlns="http://www.w3.org/2000/svg" width="24.879" height="19.395" viewBox="0 0 24.879 19.395">
  <g id="Group_573" data-name="Group 573" transform="translate(0 0)">
    <path id="Path_472" data-name="Path 472" d="M153.585,1318.356a2.166,2.166,0,0,1-1.589,1.57l.006.038c.215-.024.428-.047.643-.067a.153.153,0,0,1,.085.029.073.073,0,0,1-.008.063.134.134,0,0,1-.087.018,1.413,1.413,0,0,0-.233-.049c-.217,0-.434,0-.651.01a.2.2,0,0,0-.106.057c-.053.049-.179.063-.209,0-.038-.081-.1-.063-.158-.063h-20c-.075,0-.154-.026-.205.073-.014.025-.16.027-.175,0-.053-.1-.142-.077-.217-.079-.217-.008-.434-.006-.651,0a.733.733,0,0,0-.146.053.09.09,0,0,1-.075-.016.07.07,0,0,1-.01-.073.091.091,0,0,1,.073-.027c.211.021.42.047.637.049a2.171,2.171,0,0,1-1.55-1.578,1.5,1.5,0,0,0,.022.627.131.131,0,0,1-.016.089c0,.01-.053.014-.063,0a.116.116,0,0,1-.024-.077c.014-.12.041-.241.047-.361.008-.161,0-.325,0-.489,0-.065.008-.122-.071-.167-.03-.018-.012-.13,0-.2.008-.049.061-.095.061-.144q0-3.523,0-7.046c0-.045-.045-.086-.055-.132a1.671,1.671,0,0,1-.024-.2,1.316,1.316,0,0,1,.2.008c.049.008.095.059.14.059q2.618.006,5.234,0h18.938c.059,0,.114.006.156-.067.016-.03.118-.008.183-.008a1.665,1.665,0,0,1-.018.2c-.01.049-.059.095-.059.142q-.006,3.517,0,7.034a.265.265,0,0,0,.061.146.19.19,0,0,1-.01.219.2.2,0,0,0-.059.12c-.006.243,0,.483,0,.726,0,.043.028.085.034.128a.217.217,0,0,1-.006.1c0,.006-.069.008-.071,0a.185.185,0,0,1-.006-.1.837.837,0,0,0,.035-.138C153.589,1318.681,153.585,1318.519,153.585,1318.356Zm-16.407-3.518c.124.091.124.181.02.266a.114.114,0,0,0-.034.085q0,.651,0,1.3a.124.124,0,0,0,.03.089c.106.089.108.183-.01.274a.619.619,0,0,0,.327.331c.085-.087.221-.118.248-.055.039.091.1.071.166.071H141.2c.68,0,1.359,0,2.039,0a.178.178,0,0,0,.122-.034.159.159,0,0,1,.27.018.615.615,0,0,0,.333-.328.2.2,0,0,1-.049-.264.222.222,0,0,0,.063-.124q.006-.624,0-1.252c0-.032,0-.083-.014-.095-.154-.095-.081-.193,0-.3a.566.566,0,0,0-.339-.316c-.051.089-.225.125-.245.055-.03-.1-.1-.077-.156-.077h-3.417c-.635,0-1.268,0-1.9,0a.175.175,0,0,0-.122.032c-.093.1-.172.1-.274-.014A.621.621,0,0,0,137.178,1314.838Zm-1.43,0a.587.587,0,0,0-.333-.332c-.095.121-.166.119-.272.008a.135.135,0,0,0-.091-.025q-1.325,0-2.652,0a.169.169,0,0,0-.1.057c-.039.046-.179.077-.205.028-.057-.111-.12-.046-.17-.01a.913.913,0,0,0-.172.176c-.032.04-.077.091.006.144.063.043.039.169-.022.219a.14.14,0,0,0-.049.1q0,.645,0,1.288a.135.135,0,0,0,.024.091c.11.1.112.187,0,.278a.568.568,0,0,0,.335.331c.095-.112.162-.11.264-.012a.149.149,0,0,0,.089.027q1.334,0,2.666,0a.137.137,0,0,0,.093-.039.157.157,0,0,1,.223-.022.115.115,0,0,0,.1.018.523.523,0,0,0,.268-.308c-.114-.083-.11-.171,0-.272a.133.133,0,0,0,.026-.089q0-.645,0-1.29a.133.133,0,0,0-.028-.089C135.63,1315.007,135.628,1314.93,135.749,1314.836Z" transform="translate(-128.818 -1300.672)" fill="#fff"/>
    <path id="Path_473" data-name="Path 473" d="M152.011,1305.5a2.228,2.228,0,0,1,1.574,1.586c-.022-.211.069-.428-.041-.635-.01-.02.008-.063.024-.085s.051-.012.063,0,.035.061.028.073c-.106.158-.038.333-.053.5a2.745,2.745,0,0,0,0,.337c0,.069-.03.15.077.187.018.008-.006.136-.02.205-.008.039-.047.075-.047.11q-.006.8,0,1.6c0,.037.035.075.047.114a.975.975,0,0,1,.039.18c0,.016-.043.051-.067.051-.055,0-.122.029-.156-.059-.01-.028-.083-.041-.128-.041q-1.174,0-2.353,0-10.87,0-21.743,0c-.081,0-.183-.043-.233.085-.006.02-.118,0-.181,0,.01-.069.014-.14.028-.207.01-.044.055-.081.055-.122,0-.535,0-1.069,0-1.6a.147.147,0,0,0-.034-.095c-.089-.087-.085-.156.01-.246a.147.147,0,0,0,.032-.1c0-.247,0-.491,0-.738a.984.984,0,0,0-.045-.136.14.14,0,0,1,.016-.089.065.065,0,0,1,.063-.006c.018.021.041.069.032.081-.095.114-.041.248-.051.373a1.446,1.446,0,0,0,.008.276,2.2,2.2,0,0,1,1.577-1.587c-.181,0-.363,0-.542,0-.034,0-.063.039-.1.047a.121.121,0,0,1-.085-.02.065.065,0,0,1-.006-.063c.018-.018.057-.036.073-.028.2.1.418.026.625.045a1.077,1.077,0,0,0,.262,0c.045,0,.083-.051.126-.061.067-.014.176-.04.2-.01a.155.155,0,0,0,.158.065h10.051q4.969,0,9.939,0c.081,0,.172.036.229-.075.012-.02.124,0,.187.02.045.012.085.061.126.063.243.006.483,0,.726,0a1.44,1.44,0,0,0,.15-.043.135.135,0,0,1,.085.026c.01.008.006.051-.006.063s-.061.036-.071.026c-.118-.1-.256-.045-.385-.057C152.187,1305.494,152.1,1305.5,152.011,1305.5Z" transform="translate(-128.827 -1305.398)" fill="#fff"/>
  </g>
</svg>
