<svg id="Group_2254" data-name="Group 2254" xmlns="http://www.w3.org/2000/svg" width="31.472" height="31.384" viewBox="0 0 31.472 31.384">
  <g id="Group_2250" data-name="Group 2250" transform="translate(0)">
    <path id="Path_3071" data-name="Path 3071" d="M398.817-1402.381H381.784a1.223,1.223,0,0,1-1.223-1.221v-13.958h23.252a.91.91,0,0,0,.911-.911.912.912,0,0,0-.911-.913H380.561v-4.332a1.227,1.227,0,0,1,1.223-1.229h2.732v.465a2.913,2.913,0,0,0,2.909,2.915,2.916,2.916,0,0,0,2.912-2.915v-.465h6.878v.465a2.916,2.916,0,0,0,2.912,2.915,2.915,2.915,0,0,0,2.909-2.915v-.465h2.735a1.226,1.226,0,0,1,1.221,1.229v13.532a5.172,5.172,0,0,1,1.281.927,5.829,5.829,0,0,1,.542.249v-14.708a3.052,3.052,0,0,0-3.045-3.053h-2.735v-.465a2.915,2.915,0,0,0-2.909-2.912,2.915,2.915,0,0,0-2.912,2.912v.465h-6.878v-.465a2.915,2.915,0,0,0-2.912-2.912,2.913,2.913,0,0,0-2.909,2.912v.465h-2.732a3.05,3.05,0,0,0-3.047,3.053v20.113a3.049,3.049,0,0,0,3.047,3.045H399.9A5.852,5.852,0,0,1,398.817-1402.381Zm.224-24.852a1.087,1.087,0,0,1,1.085-1.088,1.087,1.087,0,0,1,1.085,1.088v2.754a1.087,1.087,0,0,1-1.085,1.088,1.087,1.087,0,0,1-1.085-1.088Zm-12.7,0a1.087,1.087,0,0,1,1.085-1.088,1.085,1.085,0,0,1,1.085,1.088v2.754a1.086,1.086,0,0,1-1.085,1.088,1.087,1.087,0,0,1-1.085-1.088Z" transform="translate(-378.737 1430.145)" fill="#235697"/>
    <path id="Path_3072" data-name="Path 3072" d="M382.061-1424.644a1.665,1.665,0,0,0-1.661,1.667v2.452a1.663,1.663,0,0,0,1.661,1.663h2.455a1.663,1.663,0,0,0,1.661-1.663v-2.452a1.665,1.665,0,0,0-1.661-1.667Zm2.292,3.958h-2.128v-2.128h2.128Z" transform="translate(-375.797 1439.87)" fill="#235697"/>
  </g>
  <g id="Group_2253" data-name="Group 2253" transform="translate(18.425 18.342)">
    <g id="Group_2251" data-name="Group 2251">
      <path id="Path_3073" data-name="Path 3073" d="M391.918-1410.477a6.533,6.533,0,0,1-6.524-6.52,6.531,6.531,0,0,1,6.524-6.521,6.529,6.529,0,0,1,6.524,6.521A6.531,6.531,0,0,1,391.918-1410.477Zm0-11.118a4.6,4.6,0,0,0-4.6,4.6,4.6,4.6,0,0,0,4.6,4.6,4.6,4.6,0,0,0,4.6-4.6A4.605,4.605,0,0,0,391.918-1421.594Z" transform="translate(-385.394 1423.518)" fill="#235697"/>
    </g>
    <g id="Group_2252" data-name="Group 2252" transform="translate(5.898 4.008)">
      <path id="Path_3074" data-name="Path 3074" d="M387.716-1418.832a.653.653,0,0,1-.191-.457v-2.134a.652.652,0,0,1,.648-.647.658.658,0,0,1,.648.647v1.487l1.436,0a.646.646,0,0,1,.645.645.647.647,0,0,1-.645.65l-2.084,0A.652.652,0,0,1,387.716-1418.832Z" transform="translate(-387.525 1422.07)" fill="#235697"/>
    </g>
  </g>
</svg>
