<svg xmlns="http://www.w3.org/2000/svg" width="28.983" height="21.629" viewBox="0 0 28.983 21.629">
  <g id="Group_1462" data-name="Group 1462" transform="translate(-2868 94)">
    <g id="Group_304" data-name="Group 304" transform="translate(2890.927 -90.972)">
      <rect id="Rectangle_196" data-name="Rectangle 196" width="6.056" height="2.595" transform="translate(0)" fill="#1a98e5"/>
    </g>
    <g id="Group_305" data-name="Group 305" transform="translate(2868 -90.972)">
      <rect id="Rectangle_197" data-name="Rectangle 197" width="11.247" height="2.595" fill="#1a98e5"/>
    </g>
    <g id="Group_306" data-name="Group 306" transform="translate(2880.977 -94)">
      <path id="Path_275" data-name="Path 275" d="M2887.326-85.349A4.331,4.331,0,0,1,2883-89.674,4.331,4.331,0,0,1,2887.326-94a4.331,4.331,0,0,1,4.326,4.326A4.331,4.331,0,0,1,2887.326-85.349Zm0-6.056a1.732,1.732,0,0,0-1.73,1.73,1.732,1.732,0,0,0,1.73,1.73,1.732,1.732,0,0,0,1.73-1.73A1.732,1.732,0,0,0,2887.326-91.4Z" transform="translate(-2883 94)" fill="#1a98e5"/>
    </g>
    <g id="Group_307" data-name="Group 307" transform="translate(2868 -77.995)">
      <rect id="Rectangle_198" data-name="Rectangle 198" width="6.056" height="2.595" transform="translate(0 0)" fill="#1a98e5"/>
    </g>
    <g id="Group_308" data-name="Group 308" transform="translate(2885.735 -77.995)">
      <rect id="Rectangle_199" data-name="Rectangle 199" width="11.247" height="2.595" transform="translate(0 0)" fill="#1a98e5"/>
    </g>
    <g id="Group_309" data-name="Group 309" transform="translate(2875.354 -81.023)">
      <path id="Path_276" data-name="Path 276" d="M2880.826-70.349a4.331,4.331,0,0,1-4.326-4.326A4.331,4.331,0,0,1,2880.826-79a4.331,4.331,0,0,1,4.326,4.326A4.331,4.331,0,0,1,2880.826-70.349Zm0-6.056a1.732,1.732,0,0,0-1.73,1.73,1.732,1.732,0,0,0,1.73,1.73,1.732,1.732,0,0,0,1.73-1.73A1.732,1.732,0,0,0,2880.826-76.4Z" transform="translate(-2876.5 79)" fill="#1a98e5"/>
    </g>
  </g>
</svg>
