<svg xmlns="http://www.w3.org/2000/svg" xmlns:xlink="http://www.w3.org/1999/xlink" width="487.078" height="327.69" viewBox="0 0 487.078 327.69">
  <defs>
    <linearGradient id="linear-gradient" x1="0.5" x2="0.5" y2="1" gradientUnits="objectBoundingBox">
      <stop offset="0" stop-color="#9b5feb"/>
      <stop offset="0.324" stop-color="#6941bf"/>
      <stop offset="0.499" stop-color="#5435ad"/>
      <stop offset="0.626" stop-color="#462ca1"/>
      <stop offset="0.845" stop-color="#332191"/>
      <stop offset="1" stop-color="#2d1e8c"/>
    </linearGradient>
  </defs>
  <g id="Group_5527" data-name="Group 5527" transform="translate(68.078 38)">
    <g id="Rectangle_1440" data-name="Rectangle 1440" transform="translate(289.254 -38)" fill="none" stroke="#4d31a7" stroke-width="1">
      <rect width="129.746" height="37.806" rx="18.903" stroke="none"/>
      <rect x="0.5" y="0.5" width="128.746" height="36.806" rx="18.403" fill="none"/>
    </g>
    <g id="Rectangle_1442" data-name="Rectangle 1442" transform="translate(289.254 155.088)" fill="none" stroke="#4d31a7" stroke-width="1">
      <rect width="129.746" height="37.806" rx="18.903" stroke="none"/>
      <rect x="0.5" y="0.5" width="128.746" height="36.806" rx="18.403" fill="none"/>
    </g>
    <g id="Rectangle_1443" data-name="Rectangle 1443" transform="translate(289.254 251.885)" fill="none" stroke="#4d31a7" stroke-width="1">
      <rect width="129.746" height="37.806" rx="18.903" stroke="none"/>
      <rect x="0.5" y="0.5" width="128.746" height="36.806" rx="18.403" fill="none"/>
    </g>
    <g id="Rectangle_1441" data-name="Rectangle 1441" transform="translate(289.254 58.064)" fill="none" stroke="#4d31a7" stroke-width="1">
      <rect width="129.746" height="37.806" rx="18.903" stroke="none"/>
      <rect x="0.5" y="0.5" width="128.746" height="36.806" rx="18.403" fill="none"/>
    </g>
    <text id="Visit" transform="translate(334.627 -14.143)" fill="#4d31a7" font-size="17" font-family="Montserrat-Bold, Montserrat" font-weight="700"><tspan x="0" y="0">Visit</tspan></text>
    <text id="Contact" transform="translate(318.627 178.946)" fill="#4d31a7" font-size="17" font-family="Montserrat-Bold, Montserrat" font-weight="700"><tspan x="0" y="0">Contact</tspan></text>
    <text id="Call" transform="translate(337.627 275.742)" fill="#4d31a7" font-size="17" font-family="Montserrat-Bold, Montserrat" font-weight="700"><tspan x="0" y="0">Call</tspan></text>
    <text id="Locate" transform="translate(339.297 81.651)" fill="#4d31a7" font-size="17" font-family="Montserrat-Bold, Montserrat" font-weight="700"><tspan x="0" y="0">Locate</tspan></text>
    <text id="www.company.com" transform="translate(-23.556 -17.357)" fill="#070707" font-size="17" font-family="Montserrat-Medium, Montserrat" font-weight="500"><tspan x="0" y="0">www.company.com</tspan></text>
    <text id="Office_23_Floor_23_building_1_St_7_Al_salama_Jeddah_Saudi_Arabia" data-name="Office 23, Floor 23, building 1, St 7,
Al salama, Jeddah, Saudi Arabia" transform="translate(-23.556 74.6)" fill="#070707" font-size="17" font-family="Montserrat-Medium, Montserrat" font-weight="500"><tspan x="0" y="0">Office 23, Floor 23, building 1, St 7,</tspan><tspan x="0" y="20">Al salama, Jeddah, Saudi Arabia</tspan></text>
    <text id="User.123_company.com" data-name="User.123@company.com" transform="translate(-23.556 181.462)" fill="#070707" font-size="17" font-family="Montserrat-Medium, Montserrat" font-weight="500"><tspan x="0" y="0">User.123@company.com</tspan></text>
    <text id="_966_55_889_0098" data-name="+966 55 889 0098" transform="translate(-23.556 277.801)" fill="#070707" font-size="17" font-family="Montserrat-Medium, Montserrat" font-weight="500"><tspan x="0" y="0">+966 55 889 0098</tspan></text>
    <g id="Icon_feather-globe" data-name="Icon feather-globe" transform="translate(-67.078 -33.357)">
      <path id="Path_10337" data-name="Path 10337" d="M25.684,14.342A11.342,11.342,0,1,1,14.342,3,11.342,11.342,0,0,1,25.684,14.342Z" transform="translate(-3 -3)" fill="none" stroke="#362394" stroke-linecap="round" stroke-linejoin="round" stroke-width="2"/>
      <path id="Path_10338" data-name="Path 10338" d="M3,18H25.684" transform="translate(-3 -6.658)" fill="none" stroke="#362394" stroke-linecap="round" stroke-linejoin="round" stroke-width="2"/>
      <path id="Path_10339" data-name="Path 10339" d="M16.537,3a17.353,17.353,0,0,1,4.537,11.342,17.353,17.353,0,0,1-4.537,11.342A17.353,17.353,0,0,1,12,14.342,17.353,17.353,0,0,1,16.537,3Z" transform="translate(-5.195 -3)" fill="none" stroke="#362394" stroke-linecap="round" stroke-linejoin="round" stroke-width="2"/>
    </g>
    <path id="Icon_material-location-on" data-name="Icon material-location-on" d="M18.464,3A10.956,10.956,0,0,0,7.5,13.964c0,8.223,10.964,20.361,10.964,20.361S29.427,22.187,29.427,13.964A10.956,10.956,0,0,0,18.464,3Zm0,14.879a3.916,3.916,0,1,1,3.916-3.916A3.917,3.917,0,0,1,18.464,17.879Z" transform="translate(-74.578 58.304)" fill="url(#linear-gradient)"/>
    <path id="Icon_map-location-arrow" data-name="Icon map-location-arrow" d="M13.4,19.344l-2.736-8.166H1.773l17.1-9.6Z" transform="translate(298.83 68.137)" fill="#4d31a7"/>
    <path id="Icon_material-email" data-name="Icon material-email" d="M25.076,6H5.453A2.45,2.45,0,0,0,3.012,8.453L3,23.17a2.46,2.46,0,0,0,2.453,2.453H25.076a2.46,2.46,0,0,0,2.453-2.453V8.453A2.46,2.46,0,0,0,25.076,6Zm0,4.906-9.812,6.132L5.453,10.906V8.453l9.812,6.132,9.812-6.132Z" transform="translate(-71 159.838)" fill="url(#linear-gradient)"/>
    <path id="Icon_ionic-ios-call" data-name="Icon ionic-ios-call" d="M27.419,22.989a19.831,19.831,0,0,0-4.143-2.772c-1.242-.6-1.7-.584-2.575.049-.731.529-1.2,1.02-2.047.836s-2.5-1.438-4.112-3.042-2.864-3.27-3.042-4.112.313-1.315.836-2.047c.633-.879.652-1.334.049-2.575A19.439,19.439,0,0,0,9.613,5.183c-.9-.9-1.106-.707-1.6-.529a9.129,9.129,0,0,0-1.469.781A4.431,4.431,0,0,0,4.775,7.3c-.35.756-.756,2.164,1.309,5.839a32.582,32.582,0,0,0,5.728,7.64h0l.006.006.006.006h0a32.709,32.709,0,0,0,7.64,5.728c3.676,2.065,5.083,1.66,5.839,1.309a4.356,4.356,0,0,0,1.862-1.764,9.129,9.129,0,0,0,.781-1.469C28.126,24.1,28.328,23.892,27.419,22.989Z" transform="translate(-70.633 255.494)" fill="url(#linear-gradient)"/>
  </g>
</svg>
