<svg xmlns="http://www.w3.org/2000/svg" width="34.362" height="34.36" viewBox="0 0 34.362 34.36">
  <g id="Group_5411" data-name="Group 5411" transform="translate(0 0)">
    <g id="Group_1976" data-name="Group 1976" transform="translate(0)">
      <g id="Group_1975" data-name="Group 1975" transform="translate(0)">
        <g id="Group_1974" data-name="Group 1974">
          <g id="Group_1972" data-name="Group 1972">
            <g id="Group_1969" data-name="Group 1969">
              <path id="Path_2653" data-name="Path 2653" d="M3216.339-2139.173a17.2,17.2,0,0,1-17.182-17.18,17.2,17.2,0,0,1,17.182-17.18,17.2,17.2,0,0,1,17.18,17.18A17.2,17.2,0,0,1,3216.339-2139.173Zm0-32.512a15.35,15.35,0,0,0-15.332,15.333,15.349,15.349,0,0,0,15.332,15.33,15.349,15.349,0,0,0,15.33-15.33A15.349,15.349,0,0,0,3216.339-2171.686Z" transform="translate(-3199.157 2173.533)" fill="#5435ad"/>
            </g>
          </g>
        </g>
      </g>
    </g>
    <path id="Icon_awesome-facebook-f" data-name="Icon awesome-facebook-f" d="M11.7,11.336l.56-3.647h-3.5V5.322a1.824,1.824,0,0,1,2.056-1.97H12.4V.246A19.4,19.4,0,0,0,9.579,0C6.7,0,4.813,1.747,4.813,4.909v2.78h-3.2v3.647h3.2v8.817H8.756V11.336Z" transform="translate(10.175 7.103)" fill="#4d31a7"/>
  </g>
</svg>
