<svg xmlns="http://www.w3.org/2000/svg" width="23.073" height="23.085" viewBox="0 0 23.073 23.085">
  <g id="Group_1465" data-name="Group 1465" transform="translate(0 0)">
    <path id="Path_951" data-name="Path 951" d="M6631.482,1389.589a11.543,11.543,0,1,1,11.474-11.646A11.611,11.611,0,0,1,6631.482,1389.589Zm-.085-21.361a9.817,9.817,0,1,0,9.834,9.76A9.746,9.746,0,0,0,6631.4,1368.228Z" transform="translate(-6619.883 -1366.504)" fill="#21ccc8"/>
    <path id="Path_952" data-name="Path 952" d="M6657.788,1380.044a3.644,3.644,0,0,1,.569,1.211,32.344,32.344,0,0,1,0,4.173,2.373,2.373,0,0,0,1.4,2.648,16.585,16.585,0,0,1,2.883,1.887c.318.253.367.847.538,1.285-.5.054-1.119.325-1.474.124a48.849,48.849,0,0,1-4.352-2.8,1.854,1.854,0,0,1-.663-1.273c-.07-1.966-.062-3.937,0-5.9a4.466,4.466,0,0,1,.512-1.352Z" transform="translate(-6645.99 -1376.119)" fill="#21ccc8"/>
  </g>
</svg>
