<svg id="Group_563" data-name="Group 563" xmlns="http://www.w3.org/2000/svg" width="30.333" height="23.795" viewBox="0 0 30.333 23.795">
  <path id="Path_464" data-name="Path 464" d="M27.295,1318.67a.8.8,0,0,0-.471.3,1.19,1.19,0,0,1-.121.134c-.1.082-.075.164,0,.239.1.1.09.182-.015.275a.253.253,0,0,0-.051.16c0,.784,0,1.568,0,2.353v2.044c0,.075-.015.144.09.18.077.025.067.226-.013.257-.139.054-.087.144-.062.236a1.248,1.248,0,0,1,.021.142l-.162-.033-.234.249.041.144-.147-.015c-.1-.008-.19-.054-.267.067a.239.239,0,0,1-.216,0c-.051-.1-.121-.08-.193-.08l-3.036.008c-.738,0-1.476,0-2.214.007-.059,0-.113.064-.172.072-.085.01-.219.031-.249-.012-.085-.111-.162-.07-.252-.047-.046.01-.1.01-.141.018l.044-.128-.249-.267-.147.033.013-.144c.005-.09.054-.178-.059-.258-.036-.026-.015-.154,0-.231s.072-.129.072-.19c.005-.733.005-1.466.005-2.2q0-2.858,0-5.711c0-.084.028-.177-.09-.231-.033-.016-.031-.131-.021-.2.005-.026.082-.054.123-.051a.38.38,0,0,0,.283-.118q1.226-1.014,2.458-2.026,1.365-1.121,2.728-2.247,1.6-1.319,3.2-2.633c.247-.2.5-.406.74-.614a.432.432,0,0,0,.075-.149c.018-.042.028-.113.046-.113.121-.013.242-.016.306-.147.028.015.067.02.085.043.072.09.131.093.206,0a.143.143,0,0,1,.113-.013c.039.1.116.1.2.1s.108.033.118.116a.31.31,0,0,0,.09.175q1.886,1.562,3.777,3.111,2.029,1.671,4.06,3.34c.429.352.851.71,1.283,1.054a1.263,1.263,0,0,0,.283.118c.044.018.113.039.116.064.005.064,0,.177-.033.193-.1.043-.08.115-.08.188q0,1.237,0,2.473,0,2.722,0,5.451c0,.08-.021.162.08.224.036.021.033.2,0,.216-.121.075-.072.164-.064.255a1.442,1.442,0,0,0,.018.146l-.172-.031-.226.285.046.1c-.051-.005-.1-.005-.152-.013-.087-.018-.159-.054-.242.044-.041.046-.219.056-.239.023-.062-.095-.134-.08-.211-.08l-2.09,0-3.114-.008c-.082,0-.18-.031-.213.09,0,.013-.031.023-.049.028a.434.434,0,0,1-.393-.172.412.412,0,0,1-.465-.468.422.422,0,0,1-.177-.378c0-.018.008-.049.018-.054.165-.049.111-.185.111-.291q0-2.136,0-4.273c0-.08.028-.164-.093-.211-.087-.033-.041-.2.08-.293a.872.872,0,0,0-.558-.6.147.147,0,0,0-.123.031.162.162,0,0,1-.267-.023.169.169,0,0,0-.113-.049c-.946,0-1.895,0-2.841,0a.157.157,0,0,0-.108.036C27.485,1318.827,27.413,1318.827,27.295,1318.67Z" transform="translate(-13.972 -1301.652)" fill="#fff"/>
  <path id="Path_465" data-name="Path 465" d="M42.519,1305.826a.3.3,0,0,1,.085-.036.2.2,0,0,1,.105.028c.01.01,0,.072-.021.09-.085.085-.046.123.041.167.072.036.09.213.023.234-.121.041-.1.129-.1.208v6.6c0,.077-.028.17.093.193.015,0,.039.052.033.075-.023.128.057.188.144.26q1.851,1.524,3.7,3.05c.123.1.234.25.435.208.023,0,.067.044.085.077.054.1.09.2.152.288a.368.368,0,0,1,.036.373,1.237,1.237,0,0,0-.087.3c-.013.093-.046.113-.131.126a.322.322,0,0,0-.19.09c-.324.386-.64.774-.959,1.165a.213.213,0,0,0-.062.131.209.209,0,0,1-.185.265.5.5,0,0,0-.18.1.329.329,0,0,1-.4.023.694.694,0,0,0-.1-.041c-.131-.046-.278-.028-.316-.247-.018-.116-.206-.208-.321-.3q-1.1-.914-2.209-1.821l-2.507-2.059c-.658-.54-1.314-1.085-1.972-1.628-.9-.743-1.8-1.481-2.7-2.224-.722-.594-1.44-1.193-2.162-1.782a1.271,1.271,0,0,0-.273-.108c-.046-.021-.118-.062-.116-.093,0-.121-.064-.152-.162-.154a1.048,1.048,0,0,0-.255.013.166.166,0,0,0-.1.116c-.008.09-.044.111-.131.126a.637.637,0,0,0-.283.113c-.725.591-1.445,1.188-2.165,1.782s-1.458,1.2-2.188,1.8l-2.329,1.913q-1.088.894-2.173,1.795-1.068.879-2.137,1.761c-.27.224-.543.445-.812.668-.028.023-.075.062-.072.09.013.157-.093.188-.208.218-.085.026-.167.069-.252.1a.337.337,0,0,1-.314-.041c-.093-.064-.206-.1-.3-.157a.15.15,0,0,1-.072-.108.411.411,0,0,0-.116-.3c-.311-.37-.612-.746-.918-1.119-.028-.033-.072-.085-.1-.082-.177.028-.2-.09-.229-.211-.021-.083-.059-.157-.085-.236a.341.341,0,0,1,.041-.344.6.6,0,0,0,.136-.244c.021-.131.09-.131.19-.136a.334.334,0,0,0,.177-.062q1.689-1.388,3.373-2.782,1.766-1.45,3.53-2.9,1.442-1.184,2.877-2.376c.944-.776,1.892-1.55,2.833-2.332.111-.092.293-.146.262-.354,0-.016.075-.049.116-.062a.893.893,0,0,0,.213-.064,2.3,2.3,0,0,1,1.031-.368,2.469,2.469,0,0,1,1.44.213c.1.049.2.111.306.157.072.031.154.033.226.064a.268.268,0,0,1,.111.1c.039.059.051.144.1.185q1.091.906,2.188,1.8c.679.558,1.355,1.116,2.036,1.671a.612.612,0,0,0,.159.069.632.632,0,0,0,.046-.162c0-1.064.005-2.129,0-3.191,0-.064-.069-.123-.08-.188s-.023-.183.018-.229c.057-.064.093-.1.031-.175a.13.13,0,0,1-.008-.1c.008-.015.062-.018.093-.013a.158.158,0,0,0,.18-.175c0-.033,0-.09.01-.1a.149.149,0,0,1,.111.01c.067.033.113.052.157-.039s.175-.072.249-.013a.27.27,0,0,0,.152.067c.794.005,1.586.005,2.381,0,.049,0,.1-.056.149-.064.08-.01.2-.031.234.008.062.077.1.077.172.035a.144.144,0,0,1,.108,0c.013.005,0,.064.01.093C42.452,1305.687,42.485,1305.751,42.519,1305.826Z" transform="translate(-17.037 -1305.285)" fill="#fff"/>
  <path id="Path_466" data-name="Path 466" d="M22.723,1305.377l.062.1a.144.144,0,0,1-.085.059c-.013.005-.054-.041-.051-.052A.46.46,0,0,1,22.723,1305.377Z" transform="translate(-8.222 -1305.377)" fill="#fff"/>
  <path id="Path_467" data-name="Path 467" d="M23.354,1305.458c-.059.031-.087.056-.113.052s-.046-.036-.072-.056c.023-.023.046-.062.067-.062S23.3,1305.422,23.354,1305.458Z" transform="translate(-7.404 -1305.355)" fill="#fff"/>
</svg>
