<svg xmlns="http://www.w3.org/2000/svg" xmlns:xlink="http://www.w3.org/1999/xlink" width="166.813" height="166.813" viewBox="0 0 166.813 166.813">
  <defs>
    <linearGradient id="linear-gradient" x1="0.5" x2="0.5" y2="1" gradientUnits="objectBoundingBox">
      <stop offset="0" stop-color="#9b5feb"/>
      <stop offset="0.324" stop-color="#6941bf"/>
      <stop offset="0.499" stop-color="#5435ad"/>
      <stop offset="0.626" stop-color="#462ca1"/>
      <stop offset="0.845" stop-color="#332191"/>
      <stop offset="1" stop-color="#2d1e8c"/>
    </linearGradient>
  </defs>
  <path id="Icon_metro-qrcode" data-name="Icon metro-qrcode" d="M54.7,12.354H13v41.7H54.7ZM65.126,1.928V64.483H2.571V1.928ZM23.422,22.78H44.274V43.631H23.422ZM158.958,12.354h-41.7v41.7h41.7v-41.7ZM169.384,1.928V64.483H106.829V1.928h62.555ZM127.68,22.78h20.852V43.631H127.68ZM54.7,116.612H13v41.7H54.7Zm10.426-10.426v62.555H2.571V106.186Zm-41.7,20.852H44.274v20.852H23.422ZM75.551,1.928H85.977V12.354H75.551ZM85.977,12.354H96.4V22.78H85.977ZM75.551,22.78H85.977V33.205H75.551ZM85.977,33.205H96.4V43.631H85.977ZM75.551,43.631H85.977V54.057H75.551ZM85.977,54.057H96.4V64.483H85.977ZM75.551,64.483H85.977V74.909H75.551Zm0,20.852H85.977V95.76H75.551ZM85.977,95.76H96.4v10.426H85.977ZM75.551,106.186H85.977v10.426H75.551Zm10.426,10.426H96.4v10.426H85.977ZM75.551,127.038H85.977v10.426H75.551Zm10.426,10.426H96.4v10.426H85.977ZM75.551,147.889H85.977v10.426H75.551Zm10.426,10.426H96.4v10.426H85.977Zm72.981-72.981h10.426V95.76H158.958ZM13,85.335H23.422V95.76H13ZM23.422,74.909H33.848V85.335H23.422Zm-20.852,0H13V85.335H2.571Zm41.7,0H54.7V85.335H44.274ZM54.7,85.335H65.126V95.76H54.7ZM65.126,74.909H75.551V85.335H65.126ZM96.4,85.335h10.426V95.76H96.4Zm10.426-10.426h10.426V85.335H106.829Zm10.426,10.426h10.426V95.76H117.255Zm10.426-10.426h10.426V85.335H127.681Zm10.426,10.426h10.426V95.76H138.106Zm10.426-10.426h10.426V85.335H148.532Zm10.426,31.277h10.426v10.426H158.958Zm-62.555,0h10.426v10.426H96.4ZM106.829,95.76h10.426v10.426H106.829Zm10.426,10.426h10.426v10.426H117.255Zm20.852,0h10.426v10.426H138.106ZM148.532,95.76h10.426v10.426H148.532Zm10.426,31.277h10.426v10.426H158.958Zm-62.555,0h10.426v10.426H96.4Zm10.426-10.426h10.426v10.426H106.829Zm20.852,0h10.426v10.426H127.681Zm10.426,10.426h10.426v10.426H138.106Zm10.426-10.426h10.426v10.426H148.532Zm10.426,31.277h10.426v10.426H158.958Zm-52.129-10.426h10.426v10.426H106.829Zm10.426,10.426h10.426v10.426H117.255Zm10.426-10.426h10.426v10.426H127.681Zm10.426,10.426h10.426v10.426H138.106Zm-31.277,10.426h10.426v10.426H106.829Zm20.852,0h10.426v10.426H127.681Zm20.852,0h10.426v10.426H148.532Z" transform="translate(-2.571 -1.928)" fill="url(#linear-gradient)"/>
</svg>
