<svg xmlns="http://www.w3.org/2000/svg" width="50.698" height="50.698" viewBox="0 0 50.698 50.698">
  <path id="Path_3470" data-name="Path 3470" d="M672.967-1170.277a25.38,25.38,0,0,1-25.351-25.351,25.379,25.379,0,0,1,25.351-25.347,25.378,25.378,0,0,1,25.347,25.347A25.379,25.379,0,0,1,672.967-1170.277Zm0-48.288a22.963,22.963,0,0,0-22.941,22.937,22.964,22.964,0,0,0,22.941,22.941,22.966,22.966,0,0,0,22.94-22.941A22.966,22.966,0,0,0,672.967-1218.565Zm8.544,12.655a1.876,1.876,0,0,0-1.875,1.875,1.876,1.876,0,0,0,1.875,1.875,1.876,1.876,0,0,0,1.879-1.875A1.876,1.876,0,0,0,681.511-1205.911Zm-8.338,2.4a7.889,7.889,0,0,0-7.879,7.882,7.888,7.888,0,0,0,7.879,7.879,7.888,7.888,0,0,0,7.879-7.879A7.889,7.889,0,0,0,673.172-1203.507Zm15.9,1.333a9.609,9.609,0,0,0-9.61-9.611H666.778a9.609,9.609,0,0,0-9.61,9.611v12.682a9.611,9.611,0,0,0,9.61,9.61h12.682a9.61,9.61,0,0,0,9.61-9.61Zm-3.01,12.682a6.6,6.6,0,0,1-6.6,6.6H666.778a6.6,6.6,0,0,1-6.6-6.6v-12.682a6.6,6.6,0,0,1,6.6-6.6h12.682a6.6,6.6,0,0,1,6.6,6.6Z" transform="translate(-647.616 1220.976)" fill="#5435ad"/>
</svg>
