<svg xmlns="http://www.w3.org/2000/svg" width="50.942" height="50.946" viewBox="0 0 50.942 50.946">
  <g id="Group_2492" data-name="Group 2492" transform="translate(0 0)">
    <g id="Group_2490" data-name="Group 2490" transform="translate(0)">
      <g id="Group_2487" data-name="Group 2487">
        <path id="Path_3471" data-name="Path 3471" d="M610.486-1170.1a25.5,25.5,0,0,1-25.471-25.471,25.5,25.5,0,0,1,25.471-25.474,25.5,25.5,0,0,1,25.471,25.474A25.5,25.5,0,0,1,610.486-1170.1Zm0-48.2a22.756,22.756,0,0,0-22.731,22.732,22.756,22.756,0,0,0,22.731,22.728,22.756,22.756,0,0,0,22.732-22.728A22.756,22.756,0,0,0,610.486-1218.305Z" transform="translate(-585.015 1221.048)" fill="#5435ad"/>
      </g>
      <g id="Group_2489" data-name="Group 2489" transform="translate(13.341 19.615)">
        <g id="Group_2488" data-name="Group 2488">
          <path id="Path_3472" data-name="Path 3472" d="M615.436-1207.53v9.511a.425.425,0,0,1-.425.425H610.1a.423.423,0,0,1-.425-.425v-8.846c0-2.324-.833-3.915-2.918-3.915a3.15,3.15,0,0,0-2.955,2.1,3.962,3.962,0,0,0-.192,1.406v9.25a.423.423,0,0,1-.425.425H598.28a.426.426,0,0,1-.429-.425c.014-2.355.062-13.783.01-16.471a.424.424,0,0,1,.425-.429h4.9a.423.423,0,0,1,.425.425v2.03l-.038.055h.038v-.055a5.724,5.724,0,0,1,5.194-2.863c3.789,0,6.631,2.475,6.631,7.8Zm-26.105,9.936h4.91a.425.425,0,0,0,.425-.425v-16.474a.425.425,0,0,0-.425-.425h-4.91a.425.425,0,0,0-.425.425v16.474A.425.425,0,0,0,589.331-1197.594Z" transform="translate(-588.906 1215.327)" fill="#5435ad"/>
        </g>
      </g>
    </g>
    <g id="Group_2491" data-name="Group 2491" transform="translate(12.964 11.65)">
      <circle id="Ellipse_54" data-name="Ellipse 54" cx="3.084" cy="3.084" r="3.084" fill="#5435ad"/>
    </g>
  </g>
</svg>
