<svg xmlns="http://www.w3.org/2000/svg" width="34.36" height="34.36" viewBox="0 0 34.36 34.36">
  <g id="Group_2003" data-name="Group 2003" transform="translate(0 0)">
    <g id="Group_2002" data-name="Group 2002" transform="translate(0 0)">
      <g id="Group_2001" data-name="Group 2001">
        <g id="Group_1999" data-name="Group 1999">
          <g id="Group_1996" data-name="Group 1996">
            <path id="Path_2683" data-name="Path 2683" d="M3216.338-2088.316a17.2,17.2,0,0,1-17.18-17.18,17.2,17.2,0,0,1,17.18-17.18,17.2,17.2,0,0,1,17.18,17.18A17.2,17.2,0,0,1,3216.338-2088.316Zm0-32.512a15.349,15.349,0,0,0-15.332,15.332,15.347,15.347,0,0,0,15.332,15.33,15.347,15.347,0,0,0,15.332-15.33A15.349,15.349,0,0,0,3216.338-2120.828Z" transform="translate(-3199.158 2122.676)" fill="#5435ad"/>
          </g>
          <g id="Group_1998" data-name="Group 1998" transform="translate(8.999 13.229)">
            <g id="Group_1997" data-name="Group 1997">
              <path id="Path_2684" data-name="Path 2684" d="M3221.6-2110.738v6.417a.286.286,0,0,1-.287.285H3218a.284.284,0,0,1-.285-.285v-5.967c0-1.571-.562-2.642-1.968-2.642a2.128,2.128,0,0,0-1.994,1.42,2.7,2.7,0,0,0-.126.949v6.238a.287.287,0,0,1-.287.287h-3.311a.286.286,0,0,1-.287-.287c.008-1.588.042-9.3.006-11.108a.286.286,0,0,1,.287-.291h3.3a.287.287,0,0,1,.287.287v1.368l-.02.028.02.012v-.04a3.853,3.853,0,0,1,3.5-1.929c2.557,0,4.474,1.669,4.474,5.258Zm-17.608,6.7h3.311a.284.284,0,0,0,.286-.285v-11.114a.286.286,0,0,0-.286-.287h-3.311a.288.288,0,0,0-.287.287v11.114A.286.286,0,0,0,3203.99-2104.036Z" transform="translate(-3203.702 2115.996)" fill="#5435ad"/>
            </g>
          </g>
        </g>
        <g id="Group_2000" data-name="Group 2000" transform="translate(8.745 7.857)">
          <ellipse id="Ellipse_49" data-name="Ellipse 49" cx="2.08" cy="2.08" rx="2.08" ry="2.08" fill="#5435ad"/>
        </g>
      </g>
    </g>
  </g>
</svg>
