<svg xmlns="http://www.w3.org/2000/svg" width="12.648" height="17.05" viewBox="0 0 12.648 17.05">
  <path id="Path_9063" data-name="Path 9063" d="M3195.133-2061.813c0-1.508-.266-1.8-1.908-2.009,0-.883.009-1.722,0-2.56a4.416,4.416,0,0,0-4.3-4.475,4.412,4.412,0,0,0-4.526,4.254c-.054.919-.008,1.842-.008,2.741-1.729.313-1.895.514-1.9,2.206q-.006,3.052,0,6.107c0,1.278.458,1.734,1.731,1.736q4.58.008,9.159,0c1.318,0,1.75-.455,1.752-1.8Q3195.138-2058.716,3195.133-2061.813Zm-5.515,2.625v2.708a.811.811,0,0,1-.808.808.812.812,0,0,1-.808-.808v-2.708a1.418,1.418,0,0,1-.614-1.168,1.422,1.422,0,0,1,1.422-1.422,1.421,1.421,0,0,1,1.422,1.422A1.417,1.417,0,0,1,3189.618-2059.189Zm2-4.6h-5.527a22.366,22.366,0,0,1,.035-3.385,2.662,2.662,0,0,1,2.858-2.06,2.766,2.766,0,0,1,2.619,2.479C3191.681-2065.807,3191.617-2064.844,3191.617-2063.789Z" transform="translate(-3182.487 2070.859)" fill="#b3b3b3"/>
</svg>
