<svg xmlns="http://www.w3.org/2000/svg" width="30.28" height="22.943" viewBox="0 0 30.28 22.943">
  <g id="Group_1274" data-name="Group 1274" transform="translate(0 0)">
    <path id="Path_1393" data-name="Path 1393" d="M967.869-1887.954c.193-.712.35-1.289.5-1.867.149-.552.291-1.1.431-1.644a21.024,21.024,0,0,1-1.984-.775,2.011,2.011,0,0,1-1.156-1.99c.04-3.281.017-6.563.017-9.845a3.357,3.357,0,0,1,3.554-3.583c2.094-.032,4.193-.009,6.289-.009q6.108,0,12.215,0c2.341,0,3.519,1.187,3.522,3.526q0,4.83,0,9.662a2.5,2.5,0,0,1-2.608,2.827c-1.272.085-2.551.051-3.828.053-3.161.006-6.321-.028-9.48.027a4.535,4.535,0,0,0-1.965.523C971.558-1890.09,969.787-1889.039,967.869-1887.954Zm16.979-13.753a1.67,1.67,0,0,0-1.729,1.7,1.7,1.7,0,0,0,1.7,1.65,1.763,1.763,0,0,0,1.8-1.664A1.747,1.747,0,0,0,984.848-1901.707Zm-11,1.7a1.746,1.746,0,0,0-1.667-1.7,1.679,1.679,0,0,0-1.827,1.6,1.681,1.681,0,0,0,1.684,1.75A1.75,1.75,0,0,0,973.844-1900.012Zm4.6-1.7a1.67,1.67,0,0,0-1.716,1.714,1.688,1.688,0,0,0,1.712,1.636,1.749,1.749,0,0,0,1.788-1.678A1.74,1.74,0,0,0,978.449-1901.707Z" transform="translate(-965.664 1907.675)" fill="#fff"/>
    <path id="Path_1394" data-name="Path 1394" d="M969.707-1893.415h1.109q7.424,0,14.847,0c1.995,0,2.861-.873,2.865-2.9.006-2.458,0-4.917,0-7.377v-.96c2-.4,2.865.287,2.868,2.194q.006,4.464,0,8.925c0,2-.291,2.406-2.239,3.05l.578,2.479c-1.344-.76-2.551-1.491-3.806-2.13a3.992,3.992,0,0,0-1.706-.457c-3.734-.04-7.468-.013-11.2-.026a3.04,3.04,0,0,1-3.173-1.945A7.6,7.6,0,0,1,969.707-1893.415Z" transform="translate(-961.119 1910.948)" fill="#fff"/>
  </g>
</svg>
