<svg xmlns="http://www.w3.org/2000/svg" width="43.053" height="25.134" viewBox="0 0 43.053 25.134">
  <g id="Group_5621" data-name="Group 5621" transform="translate(-1608.59 -53.05)">
    <path id="Path_416" data-name="Path 416" d="M163.348,979.38a1.476,1.476,0,1,1,1.477-1.477A1.477,1.477,0,0,1,163.348,979.38Zm-3.2,19.681h6.395a3.294,3.294,0,0,1-6.395,0Zm-4.222-11a7.3,7.3,0,0,1,1.8-6.7,7.785,7.785,0,0,1,11.23,0,7.288,7.288,0,0,1,1.8,6.7,19.141,19.141,0,0,0,.082,9.386h-15A19.112,19.112,0,0,0,155.929,988.062Z" transform="translate(1480.688 -923.379)" fill="#fff"/>
    <path id="Path_10328" data-name="Path 10328" d="M10.378,14.815a1.362,1.362,0,0,0,0,1.92l6.729,6.708a1.356,1.356,0,0,0,1.87.042l6.63-6.609a1.355,1.355,0,1,0-1.912-1.92L18,20.566l-5.7-5.759A1.356,1.356,0,0,0,10.378,14.815Z" transform="translate(1598.607 49.675)" fill="#fff"/>
  </g>
</svg>
