<svg xmlns="http://www.w3.org/2000/svg" width="32.882" height="19.951" viewBox="0 0 32.882 19.951">
  <g id="Group_1078" data-name="Group 1078" transform="translate(0 0)">
    <g id="Group_1077" data-name="Group 1077" transform="translate(0 0)">
      <path id="Path_1040" data-name="Path 1040" d="M355.274-1920.951c1.176-.794,2.245-1.67,3.941-1.143a9.11,9.11,0,0,0,2.918-.071,4.161,4.161,0,0,1,1.193-.031,5.856,5.856,0,0,1,4.339,5.554c.029,1.274,0,2.552.014,3.826.009.629-.266.919-.892.918q-6.322,0-12.644,0c-.571,0-.886-.239-.866-.848.015-.521,0-1.043,0-1.618h1.011l.085,1.314h12.109c0-1.509.106-2.977-.03-4.422a4.207,4.207,0,0,0-2-3.031,2.967,2.967,0,0,0-2.556-.508,12.926,12.926,0,0,1-3.184-.03,6.329,6.329,0,0,0-1.113-.012c-.747.115-1.486.293-2.227.444Z" transform="translate(-334.796 1931.84)" fill="#fff"/>
      <path id="Path_1041" data-name="Path 1041" d="M354.409-1913.038v-1.326l1.04-.053c0,.67.033,1.3-.009,1.917s-.537.611-.99.611h-6.815c-1.828,0-3.657-.019-5.485.009-.762.01-1.125-.24-1.1-1.055.044-1.245-.009-2.494.023-3.74a5.877,5.877,0,0,1,4.529-5.565,1.624,1.624,0,0,1,.871.05,5.108,5.108,0,0,0,3.575,0,4.941,4.941,0,0,1,1.188-.093c-1.129,1.69-2.643,1.661-4.181,1.388a3.509,3.509,0,0,0-4.051,1.695,8.961,8.961,0,0,0-.777,1.9,2.9,2.9,0,0,0-.094.9c-.011,1.1,0,2.2,0,3.349Z" transform="translate(-341.051 1931.829)" fill="#fff"/>
      <path id="Path_1042" data-name="Path 1042" d="M350.907-1924.1c0,2.523-1.218,4.127-3.352,4.4a3.7,3.7,0,0,1-4.129-3.017,10.016,10.016,0,0,1-.056-2.481,3.714,3.714,0,0,1,3.829-3.4,3.832,3.832,0,0,1,3.705,3.664C350.919-1924.654,350.907-1924.376,350.907-1924.1Zm-6.46-.035h-.015c0,.276-.015.555,0,.831a2.642,2.642,0,0,0,2.667,2.534,2.628,2.628,0,0,0,2.676-2.523,11.184,11.184,0,0,0-.024-1.909,2.627,2.627,0,0,0-2.721-2.287,2.64,2.64,0,0,0-2.581,2.358A9.957,9.957,0,0,0,344.448-1924.134Z" transform="translate(-339.89 1928.595)" fill="#fff"/>
      <path id="Path_1043" data-name="Path 1043" d="M355.523-1924.178c-.006-2.438,1.16-4.022,3.2-4.366a3.707,3.707,0,0,1,4.293,3.1,5.546,5.546,0,0,1-.653,4.239,3.8,3.8,0,0,1-4.144,1.387,3.891,3.891,0,0,1-2.7-3.445C355.505-1923.567,355.523-1923.872,355.523-1924.178Zm6.473.086c0-.277.015-.555,0-.832a2.637,2.637,0,0,0-3.051-2.535c-1.53.185-2.316,1.33-2.314,3.376,0,1.93.837,3.116,2.324,3.291.054.006.11.012.165.015C360.928-1920.664,362.009-1921.9,362-1924.091Z" transform="translate(-333.649 1928.595)" fill="#fff"/>
      <path id="Path_1044" data-name="Path 1044" d="M358.71-1918.01a5.89,5.89,0,0,1-.884-.824.751.751,0,0,1-.024-.718.72.72,0,0,1,.712-.041,24.994,24.994,0,0,1,2.145,1.956.788.788,0,0,1-.015.771,22.963,22.963,0,0,1-2.08,1.9c-.166.135-.525.03-.794.036a2.009,2.009,0,0,1,.124-.8,6.417,6.417,0,0,1,.937-.912c-.354-.027-.577-.059-.8-.059q-4.154-.006-8.308,0a1.909,1.909,0,0,1-.735-.062.675.675,0,0,1-.355-.485.642.642,0,0,1,.357-.473,2.346,2.346,0,0,1,.815-.079q4.4-.007,8.8,0Z" transform="translate(-337.172 1933.163)" fill="#fff"/>
      <path id="Path_1045" data-name="Path 1045" d="M349.053-1919.148a6.027,6.027,0,0,1,.939.906,2.636,2.636,0,0,1,.192.864c-.29-.018-.665.071-.853-.077a16.971,16.971,0,0,1-1.961-1.792.914.914,0,0,1-.029-.889,16.517,16.517,0,0,1,1.956-1.794c.2-.154.577-.072.874-.1a2.466,2.466,0,0,1-.157.87,5.857,5.857,0,0,1-.955.913h1.058q4.032,0,8.064,0a2.076,2.076,0,0,1,.736.062c.174.068.41.3.395.44a.8.8,0,0,1-.392.54,1.788,1.788,0,0,1-.736.054Z" transform="translate(-337.884 1931.955)" fill="#fff"/>
    </g>
  </g>
</svg>
