<svg xmlns="http://www.w3.org/2000/svg" xmlns:xlink="http://www.w3.org/1999/xlink" width="11.418" height="12.229" viewBox="0 0 11.418 12.229">
  <defs>
    <linearGradient id="linear-gradient" y1="0.5" x2="1" y2="0.5" gradientUnits="objectBoundingBox">
      <stop offset="0" stop-color="#9b5feb"/>
      <stop offset="0.324" stop-color="#6941bf"/>
      <stop offset="0.499" stop-color="#5435ad"/>
      <stop offset="0.626" stop-color="#462ca1"/>
      <stop offset="0.845" stop-color="#332191"/>
      <stop offset="1" stop-color="#2d1e8c"/>
    </linearGradient>
  </defs>
  <path id="Path_2897" data-name="Path 2897" d="M96.186-1252.72a3.915,3.915,0,0,1,1.315-2.906c.336-.3.787-.866,1.3-.806.528.065.91.653,1.167,1.061.459.71,1.194,1.744.519,2.534-.328.377-.836.582-1.129.989a1.34,1.34,0,0,0,.082,1.375,8.306,8.306,0,0,0,2.085,2.509,1.873,1.873,0,0,0,1.35.572c.517-.077.913-.65,1.293-.965.968-.782,2.028.284,2.739.924a1.65,1.65,0,0,1,.7,1.175c-.019.484-.659.894-1,1.184a3.913,3.913,0,0,1-3.324.776,7.492,7.492,0,0,1-3.332-1.889,15.628,15.628,0,0,1-2.531-3.015,7.228,7.228,0,0,1-.839-1.629,8.144,8.144,0,0,1-.388-1.889C96.2-1253.344,96.227-1252.382,96.186-1252.72Z" transform="translate(-96.186 1256.437)" fill-rule="evenodd" fill="url(#linear-gradient)"/>
</svg>
