<svg xmlns="http://www.w3.org/2000/svg" width="31.28" height="26.203" viewBox="0 0 31.28 26.203">
  <g id="Group_4555" data-name="Group 4555" transform="translate(-351.301 -193.719)">
    <path id="Path_9039" data-name="Path 9039" d="M462.335,252.929c-.442.385-.861.8-1.332,1.149a11.836,11.836,0,0,1-3.5,1.749.492.492,0,1,1-.333-.923c.065-.028.136-.043.2-.073.818-.38,1.653-.729,2.447-1.155a10.324,10.324,0,0,0,1.36-.978.441.441,0,0,0,.156-.323,7.542,7.542,0,0,0-3.759-6.175.36.36,0,0,0-.5.038,4.826,4.826,0,0,1-3.769,1.243,8.731,8.731,0,0,1-1.719-.48.464.464,0,0,1-.277-.65.513.513,0,0,1,.676-.238,8.25,8.25,0,0,0,1.4.389,4.068,4.068,0,0,0,3.251-1.179c.5-.444.541-.468,1.118-.146a8.485,8.485,0,0,1,4.531,6.693,1.4,1.4,0,0,0,.055.2Z" transform="translate(-79.753 -40.887)" fill="#fff"/>
    <path id="Path_9040" data-name="Path 9040" d="M389.745,271.892a14.281,14.281,0,0,1-9.572-3.6.738.738,0,0,1-.277-.639,9.745,9.745,0,0,1,5.457-8.665c.381-.2.52-.186.843.117a5.409,5.409,0,0,0,2.751,1.487,4.661,4.661,0,0,0,3.729-.952c.253-.187.486-.4.72-.613a.545.545,0,0,1,.673-.087,9.75,9.75,0,0,1,5.391,7.158c.1.516.1,1.051.153,1.577a.66.66,0,0,1-.246.592,14.488,14.488,0,0,1-8.039,3.569c-.172.02-.344.046-.516.05C390.457,271.9,390.1,271.892,389.745,271.892Zm.3-.948c.334-.03.943-.066,1.548-.144a13.5,13.5,0,0,0,6.4-2.663,1.3,1.3,0,0,0,.58-1.424,8.926,8.926,0,0,0-4.332-6.568.478.478,0,0,0-.7.069,3.176,3.176,0,0,1-.533.406,5.6,5.6,0,0,1-4.142.961,5.985,5.985,0,0,1-2.98-1.441.357.357,0,0,0-.524-.04c-.5.367-1.043.682-1.5,1.093a8.63,8.63,0,0,0-2.957,6.183.5.5,0,0,0,.149.357A13.584,13.584,0,0,0,390.044,270.944Z" transform="translate(-22.815 -51.972)" fill="#fff"/>
    <path id="Path_9041" data-name="Path 9041" d="M406.269,200.45a5.7,5.7,0,0,1,5.611,6.659,8.522,8.522,0,0,1-2.806,5.175,4.052,4.052,0,0,1-5.572,0,8.373,8.373,0,0,1-2.87-5.748,5.648,5.648,0,0,1,5.3-6.063C406.054,200.466,406.176,200.457,406.269,200.45Zm.005.994a4.686,4.686,0,0,0-4.673,4.864,7.647,7.647,0,0,0,2.124,4.841,3.965,3.965,0,0,0,1.747,1.132,3.026,3.026,0,0,0,3.009-.8,7.444,7.444,0,0,0,2.425-4.531A4.689,4.689,0,0,0,406.274,201.444Z" transform="translate(-39.344 -5.37)" fill="#fff"/>
    <path id="Path_9042" data-name="Path 9042" d="M449.437,193.813a5,5,0,0,1,4.836,6.163,7.326,7.326,0,0,1-2.386,4.157,3.469,3.469,0,0,1-3.911.644.492.492,0,0,1-.309-.666.474.474,0,0,1,.663-.244,2.659,2.659,0,0,0,3.206-.751,6.12,6.12,0,0,0,1.866-4.288,3.732,3.732,0,0,0-2.278-3.634,3.831,3.831,0,0,0-4.234.532c-.064.05-.12.11-.184.16a.5.5,0,0,1-.735-.005.485.485,0,0,1,.089-.726,8.518,8.518,0,0,1,1.118-.787A4.72,4.72,0,0,1,449.437,193.813Z" transform="translate(-75.436 -0.075)" fill="#fff"/>
    <path id="Path_9043" data-name="Path 9043" d="M369.167,198.488a4.982,4.982,0,0,1,8.281-3.475.545.545,0,0,1,.233.663c-.137.335-.494.365-.842.123a6.283,6.283,0,0,0-1.288-.793,3.768,3.768,0,0,0-3.951.646,3.831,3.831,0,0,0-1.37,3.828,6.148,6.148,0,0,0,2.339,4.013,2.419,2.419,0,0,0,2.585.329c.349-.155.629-.064.75.213s-.008.534-.364.689a3.464,3.464,0,0,1-3.787-.6A7.626,7.626,0,0,1,369.167,198.488Z" transform="translate(-14.255)" fill="#fff"/>
    <path id="Path_9044" data-name="Path 9044" d="M359.883,247.587a5.055,5.055,0,0,1-3.291-1.249.413.413,0,0,0-.578-.048,7.54,7.54,0,0,0-3.709,6.142.459.459,0,0,0,.161.32,11.09,11.09,0,0,0,2.617,1.662c.472.216.616.464.473.774s-.43.334-.9.115a13.177,13.177,0,0,1-3.037-1.966.81.81,0,0,1-.314-.716,8.524,8.524,0,0,1,4.782-7.486.616.616,0,0,1,.794.15,4.486,4.486,0,0,0,2.359,1.258,3.769,3.769,0,0,0,2.093-.232c.113-.046.221-.106.336-.145a.5.5,0,0,1,.663.261.462.462,0,0,1-.27.629c-.533.191-1.079.346-1.625.495A2.693,2.693,0,0,1,359.883,247.587Z" transform="translate(0 -40.954)" fill="#fff"/>
    <path id="Path_9045" data-name="Path 9045" d="M374.86,294.5a.5.5,0,0,1-.483.491.5.5,0,0,1-.485-.488.484.484,0,0,1,.968,0Z" transform="translate(-18.026 -80.028)" fill="#fff"/>
  </g>
</svg>
