<svg id="Group_2248" data-name="Group 2248" xmlns="http://www.w3.org/2000/svg" width="24.696" height="21.782" viewBox="0 0 24.696 21.782">
  <path id="Path_3069" data-name="Path 3069" d="M468.447-1422.684l-8.241-6.03c-.651-.476-1.977-1.911-2.88-1.268-.565.4-.424,1.218-.424,1.819v2.578l.515-.676c-3.984.905-8.024,2.713-10.633,5.977-2.657,3.329-2.9,7.166-2.486,11.23.075.746,1.162,1,1.377.187.736-2.772,1.568-5.548,4.055-7.273,2.269-1.571,5.219-1.721,7.872-1.4l-.7-.7v2.806c0,.686-.127,1.7.774,1.9,1.018.221,2.578-1.466,3.281-1.979l5.529-4.048c.884-.646,2.885-1.542,2.213-2.868-.409-.807-1.62-.1-1.212.707l.121.238v-.709c.04-.079.169.048-.062.127a2.61,2.61,0,0,0-.528.386l-1.714,1.254-4.651,3.4-1.881,1.375c-.152.11-.961.54-1,.73l-.042.031c-.192.136,0,.254.573.354.038-.021-.021-.236,0-.281a4.083,4.083,0,0,0,0-1.28v-2.147a.722.722,0,0,0-.7-.7c-3.035-.369-6.4-.058-8.921,1.838-2.6,1.956-3.562,4.853-4.359,7.865l1.377.186c-.386-3.821-.252-7.523,2.376-10.6,2.457-2.88,6.1-4.432,9.713-5.25a.714.714,0,0,0,.515-.678v-2.063a4.556,4.556,0,0,0,0-1.155,2.609,2.609,0,0,0,0-.348c-.092-.046-.546.392-.546.375.01.146.83.607.943.69l1.952,1.427,7.085,5.185C468.468-1420.939,469.169-1422.155,468.447-1422.684Z" transform="translate(-444.138 1430.145)" fill="#235697"/>
</svg>
