<svg id="Group_2248" data-name="Group 2248" xmlns="http://www.w3.org/2000/svg" width="35.581" height="31.382" viewBox="0 0 35.581 31.382">
  <path id="Path_3069" data-name="Path 3069" d="M479.161-1419.4l-11.874-8.688c-.938-.686-2.848-2.754-4.149-1.827-.814.581-.612,1.755-.612,2.621v3.714l.742-.974c-5.74,1.3-11.561,3.908-15.32,8.611-3.828,4.8-4.174,10.324-3.582,16.181.108,1.074,1.674,1.445,1.984.269,1.06-3.994,2.258-7.994,5.843-10.479,3.269-2.264,7.52-2.48,11.342-2.015l-1.01-1.013v4.043c0,.988-.183,2.452,1.115,2.735,1.467.318,3.714-2.112,4.727-2.851l7.966-5.832c1.273-.93,4.157-2.222,3.188-4.132-.59-1.163-2.333-.139-1.747,1.019l.174.343v-1.021c.058-.114.243.069-.089.183a3.76,3.76,0,0,0-.761.556l-2.469,1.807-6.7,4.9-2.71,1.982c-.219.158-1.384.778-1.439,1.052l-.061.044c-.277.2,0,.365.825.509.055-.031-.03-.34,0-.4a5.884,5.884,0,0,0,0-1.844V-1413a1.04,1.04,0,0,0-1.01-1.01c-4.373-.531-9.228-.083-12.854,2.648-3.739,2.818-5.132,6.992-6.28,11.332l1.984.268c-.556-5.505-.363-10.839,3.424-15.275,3.54-4.149,8.791-6.385,13.994-7.564a1.029,1.029,0,0,0,.742-.977v-2.972a6.565,6.565,0,0,0,0-1.664,3.774,3.774,0,0,0,0-.5c-.133-.067-.786.565-.786.54.014.211,1.2.875,1.359.994l2.812,2.057,10.208,7.47C479.192-1416.882,480.2-1418.634,479.161-1419.4Z" transform="translate(-444.138 1430.145)" fill="#235697"/>
</svg>
