<svg id="Group_2249" data-name="Group 2249" xmlns="http://www.w3.org/2000/svg" width="37.535" height="31.382" viewBox="0 0 37.535 31.382">
  <path id="Path_3070" data-name="Path 3070" d="M341.131-1398.763a1.16,1.16,0,0,1-.4-.075,1.082,1.082,0,0,1-.684-1.005v-3.307H323.374a1.08,1.08,0,0,1-1.079-1.077,1.081,1.081,0,0,1,1.079-1.08h17.757a1.081,1.081,0,0,1,1.077,1.08v1.641l6.266-6.759-6.266-6.753v1.641a1.079,1.079,0,0,1-1.077,1.076H324.453v3.308a1.081,1.081,0,0,1-.684,1,1.1,1.1,0,0,1-1.185-.274l-8.815-9.5a1.079,1.079,0,0,1,0-1.464l8.815-9.5a1.079,1.079,0,0,1,1.185-.271,1.077,1.077,0,0,1,.684,1v3.307h16.678a1.08,1.08,0,0,1,1.077,1.079,1.08,1.08,0,0,1-1.077,1.077H323.374a1.08,1.08,0,0,1-1.079-1.077v-1.641l-6.266,6.756,6.266,6.755v-1.641a1.081,1.081,0,0,1,1.079-1.079h16.678v-3.307a1.077,1.077,0,0,1,.684-1,1.08,1.08,0,0,1,1.185.271l8.815,9.5a1.081,1.081,0,0,1,0,1.461l-8.815,9.5A1.083,1.083,0,0,1,341.131-1398.763Z" transform="translate(-313.483 1430.145)" fill="#235697"/>
</svg>
