<svg xmlns="http://www.w3.org/2000/svg" width="51.031" height="51.031" viewBox="0 0 51.031 51.031">
  <g id="Group_2482" data-name="Group 2482" transform="translate(0)">
    <g id="Group_2475" data-name="Group 2475" transform="translate(0)">
      <path id="Path_3462" data-name="Path 3462" d="M631.373-1170.042a25.547,25.547,0,0,1-25.516-25.516,25.544,25.544,0,0,1,25.516-25.515,25.542,25.542,0,0,1,25.515,25.515A25.544,25.544,0,0,1,631.373-1170.042Zm0-48.288a22.8,22.8,0,0,0-22.773,22.772,22.8,22.8,0,0,0,22.773,22.772,22.8,22.8,0,0,0,22.772-22.772A22.8,22.8,0,0,0,631.373-1218.33Z" transform="translate(-605.857 1221.073)" fill="#5435ad"/>
    </g>
    <g id="Group_2481" data-name="Group 2481" transform="translate(10.551 13.266)">
      <g id="Group_2476" data-name="Group 2476">
        <path id="Path_3463" data-name="Path 3463" d="M638.563-1214.266a12.189,12.189,0,0,1-3,.857c.484-.079,1.2-.956,1.481-1.31a5.523,5.523,0,0,0,1-1.824c.028-.051.048-.117-.007-.154a.16.16,0,0,0-.158.014,15.391,15.391,0,0,1-3.569,1.364.244.244,0,0,1-.247-.065,2.467,2.467,0,0,0-.312-.319,6.258,6.258,0,0,0-1.728-1.059,5.978,5.978,0,0,0-2.65-.429,6.339,6.339,0,0,0-2.517.714,6.439,6.439,0,0,0-2.026,1.655,6.236,6.236,0,0,0-1.214,2.428,6.576,6.576,0,0,0-.065,2.562c.021.144.007.164-.12.144-4.9-.73-8.966-2.482-12.264-6.24-.144-.165-.22-.165-.336.01-1.444,2.163-.744,5.64,1.059,7.347a9.878,9.878,0,0,0,.754.662,6.242,6.242,0,0,1-2.369-.662c-.141-.089-.212-.038-.226.123a3.808,3.808,0,0,0,.038.7,6.288,6.288,0,0,0,3.878,5.012,3.654,3.654,0,0,0,.785.24,7.043,7.043,0,0,1-2.321.072c-.168-.034-.233.051-.168.216a6.515,6.515,0,0,0,4.875,4.08c.219.041.442.041.662.092-.01.021-.024.021-.038.038-.548.836-2.445,1.457-3.329,1.765a11.916,11.916,0,0,1-5.057.648c-.274-.041-.329-.038-.4,0s-.01.11.079.182c.346.226.7.429,1.053.624a16.752,16.752,0,0,0,3.381,1.351c6.075,1.68,12.919.446,17.482-4.087,3.58-3.559,4.838-8.469,4.838-13.382,0-.192.226-.3.36-.4a11.733,11.733,0,0,0,2.369-2.472.733.733,0,0,0,.148-.473v-.028C638.676-1214.345,638.683-1214.321,638.563-1214.266Z" transform="translate(-608.934 1217.204)" fill="#5435ad"/>
      </g>
      <g id="Group_2477" data-name="Group 2477" transform="translate(8.834 24.393)">
        <path id="Path_3464" data-name="Path 3464" d="M611.511-1210.089Z" transform="translate(-611.511 1210.089)" fill="#5435ad" fill-rule="evenodd"/>
      </g>
      <g id="Group_2478" data-name="Group 2478" transform="translate(8.607 24.393)">
        <path id="Path_3465" data-name="Path 3465" d="M611.672-1210.089Z" transform="translate(-611.445 1210.089)" fill="#5435ad" fill-rule="evenodd"/>
      </g>
      <g id="Group_2479" data-name="Group 2479" transform="translate(9.835 24.394)">
        <path id="Path_3466" data-name="Path 3466" d="M611.8-1210.066c0-.051.525,0,0,0Z" transform="translate(-611.803 1210.089)" fill="#5435ad" fill-rule="evenodd"/>
      </g>
      <g id="Group_2480" data-name="Group 2480" transform="translate(20.231 0.036)">
        <path id="Path_3467" data-name="Path 3467" d="M614.958-1217.193a.1.1,0,0,1-.123,0Z" transform="translate(-614.835 1217.193)" fill="#5435ad" fill-rule="evenodd"/>
      </g>
    </g>
  </g>
</svg>
