<svg xmlns="http://www.w3.org/2000/svg" xmlns:xlink="http://www.w3.org/1999/xlink" width="14.41" height="14.41" viewBox="0 0 14.41 14.41">
  <defs>
    <linearGradient id="linear-gradient" y1="0.5" x2="1" y2="0.5" gradientUnits="objectBoundingBox">
      <stop offset="0" stop-color="#9b5feb"/>
      <stop offset="0.324" stop-color="#6941bf"/>
      <stop offset="0.499" stop-color="#5435ad"/>
      <stop offset="0.626" stop-color="#462ca1"/>
      <stop offset="0.845" stop-color="#332191"/>
      <stop offset="1" stop-color="#2d1e8c"/>
    </linearGradient>
  </defs>
  <path id="Path_2935" data-name="Path 2935" d="M102.842-1237.314a7.213,7.213,0,0,0-7.2,7.2,7.213,7.213,0,0,0,7.2,7.205,7.212,7.212,0,0,0,7.2-7.205A7.211,7.211,0,0,0,102.842-1237.314Zm3.242,9.014a16.66,16.66,0,0,0,.1-1.81,16.7,16.7,0,0,0-.1-1.812c1.782.446,2.8,1.208,2.8,1.812S107.866-1228.742,106.084-1228.3Zm-3.242,4.233c-.6,0-1.367-1.019-1.809-2.8a15.973,15.973,0,0,0,1.809.1,16.022,16.022,0,0,0,1.812-.1C104.211-1225.085,103.449-1224.066,102.842-1224.066Zm0-3.867a14.636,14.636,0,0,1-2.039-.137,14.6,14.6,0,0,1-.137-2.039,14.594,14.594,0,0,1,.137-2.039,14.6,14.6,0,0,1,2.039-.137,14.609,14.609,0,0,1,2.042.137,15.042,15.042,0,0,1,.134,2.039,15.043,15.043,0,0,1-.134,2.039A14.648,14.648,0,0,1,102.842-1227.933Zm-6.043-2.176c0-.6,1.02-1.366,2.8-1.812a16.7,16.7,0,0,0-.1,1.812,16.664,16.664,0,0,0,.1,1.81C97.818-1228.742,96.8-1229.505,96.8-1230.109Zm6.043-6.043c.607,0,1.369,1.02,1.812,2.8a16.079,16.079,0,0,0-1.812-.1,16.03,16.03,0,0,0-1.809.1C101.475-1235.133,102.238-1236.153,102.842-1236.153Zm5.663,3.93a8.679,8.679,0,0,0-2.616-.932,8.746,8.746,0,0,0-.935-2.616A6.065,6.065,0,0,1,108.505-1232.222Zm-7.773-3.548a8.746,8.746,0,0,0-.935,2.616,8.679,8.679,0,0,0-2.616.932A6.073,6.073,0,0,1,100.732-1235.77ZM97.181-1228a8.678,8.678,0,0,0,2.616.932,8.745,8.745,0,0,0,.935,2.615A6.072,6.072,0,0,1,97.181-1228Zm7.773,3.548a8.745,8.745,0,0,0,.935-2.615,8.679,8.679,0,0,0,2.616-.932A6.072,6.072,0,0,1,104.955-1224.449Z" transform="translate(-95.637 1237.314)" fill="url(#linear-gradient)"/>
</svg>
